# MagicaVoxel @ Ephtracy

# group
o 

# material
mtllib Sam.mtl
usemtl palette

# normals
vn -1 0 0
vn 1 0 0
vn 0 0 1
vn 0 0 -1
vn 0 -1 0
vn 0 1 0

# texcoords
vt 0.0332031 0.5
vt 0.0371094 0.5
vt 0.0800781 0.5
vt 0.443359 0.5
vt 0.533203 0.5
vt 0.541016 0.5
vt 0.580078 0.5
vt 0.673828 0.5
vt 0.677734 0.5
vt 0.826172 0.5
vt 0.837891 0.5
vt 0.986328 0.5

# verts
v -1 1.8 -0.5
v -1 1.8 -0.7
v -1 2 -0.5
v -1 2 -0.7
v -0.4 0.9 -0.4
v -0.4 0.9 -0.8
v -0.4 1.1 -0.4
v -0.4 1.1 -0.8
v -0.4 1.8 -0.5
v -0.4 1.8 -0.7
v -0.4 2 -0.4
v -0.4 2 -0.5
v -0.4 2 -0.7
v -0.4 2 -0.8
v -0.4 2.2 -0.5
v -0.4 2.2 -0.8
v -0.4 2.3 -0.5
v -0.4 2.3 -0.6
v -0.4 2.4 -0.5
v -0.4 2.4 -0.6
v -0.4 2.8 -0.5
v -0.4 2.8 -0.8
v -0.3 0 -0.1
v -0.3 0 -0.7
v -0.3 0.1 -0.1
v -0.3 0.1 -0.5
v -0.3 0.2 -0.5
v -0.3 0.2 -0.7
v -0.3 0.9 -0.5
v -0.3 0.9 -0.7
v -0.3 2.1 -0.5
v -0.3 2.1 -0.6
v -0.3 2.1 -0.7
v -0.3 2.2 -0.5
v -0.3 2.2 -0.6
v -0.3 2.2 -0.7
v -0.2 2.3 -0.6
v -0.2 2.3 -0.7
v -0.2 2.4 -0.6
v -0.2 2.4 -0.7
v -0.0999999 2 -0.5
v -0.0999999 2 -0.7
v -0.0999999 2.1 -0.5
v -0.0999999 2.1 -0.7
v 0.1 0 -0.1
v 0.1 0 -0.7
v 0.1 0.1 -0.1
v 0.1 0.1 -0.5
v 0.1 0.2 -0.5
v 0.1 0.2 -0.7
v 0.1 0.9 -0.5
v 0.1 0.9 -0.7
v 0.3 2.3 -0.6
v 0.3 2.3 -0.7
v 0.3 2.4 -0.6
v 0.3 2.4 -0.7
v -0.3 2.3 -0.6
v -0.3 2.3 -0.7
v -0.3 2.4 -0.6
v -0.3 2.4 -0.7
v -0.0999999 0 -0.1
v -0.0999999 0 -0.7
v -0.0999999 0.1 -0.1
v -0.0999999 0.1 -0.5
v -0.0999999 0.2 -0.5
v -0.0999999 0.2 -0.7
v -0.0999999 0.9 -0.5
v -0.0999999 0.9 -0.7
v 0.1 2 -0.5
v 0.1 2 -0.7
v 0.1 2.1 -0.5
v 0.1 2.1 -0.7
v 0.2 2.3 -0.6
v 0.2 2.3 -0.7
v 0.2 2.4 -0.6
v 0.2 2.4 -0.7
v 0.3 0 -0.1
v 0.3 0 -0.7
v 0.3 0.1 -0.1
v 0.3 0.1 -0.5
v 0.3 0.2 -0.5
v 0.3 0.2 -0.7
v 0.3 0.9 -0.5
v 0.3 0.9 -0.7
v 0.3 2.1 -0.5
v 0.3 2.1 -0.6
v 0.3 2.1 -0.7
v 0.3 2.2 -0.5
v 0.3 2.2 -0.6
v 0.3 2.2 -0.7
v 0.4 0.9 -0.4
v 0.4 0.9 -0.8
v 0.4 1.1 -0.4
v 0.4 1.1 -0.8
v 0.4 1.8 -0.5
v 0.4 1.8 -0.7
v 0.4 2 -0.4
v 0.4 2 -0.5
v 0.4 2 -0.7
v 0.4 2 -0.8
v 0.4 2.2 -0.5
v 0.4 2.2 -0.8
v 0.4 2.3 -0.5
v 0.4 2.3 -0.6
v 0.4 2.4 -0.5
v 0.4 2.4 -0.6
v 0.4 2.8 -0.5
v 0.4 2.8 -0.8
v 1 1.8 -0.5
v 1 1.8 -0.7
v 1 2 -0.5
v 1 2 -0.7
v -0.3 0 -0.1
v -0.3 0.1 -0.1
v -0.0999999 0 -0.1
v -0.0999999 0.1 -0.1
v 0.1 0 -0.1
v 0.1 0.1 -0.1
v 0.3 0 -0.1
v 0.3 0.1 -0.1
v -0.4 0.9 -0.4
v -0.4 1.1 -0.4
v -0.4 2 -0.4
v -0.0999999 1.9 -0.4
v -0.0999999 2 -0.4
v 0.1 1.9 -0.4
v 0.1 2 -0.4
v 0.4 0.9 -0.4
v 0.4 1.1 -0.4
v 0.4 2 -0.4
v -1 1.8 -0.5
v -1 2 -0.5
v -0.6 1.8 -0.5
v -0.6 2 -0.5
v -0.4 1.8 -0.5
v -0.4 2 -0.5
v -0.4 2.2 -0.5
v -0.4 2.3 -0.5
v -0.4 2.4 -0.5
v -0.4 2.8 -0.5
v -0.3 0.1 -0.5
v -0.3 0.2 -0.5
v -0.3 0.9 -0.5
v -0.3 2.1 -0.5
v -0.3 2.2 -0.5
v -0.3 2.3 -0.5
v -0.3 2.4 -0.5
v -0.3 2.5 -0.5
v -0.2 2.1 -0.5
v -0.2 2.2 -0.5
v -0.2 2.3 -0.5
v -0.2 2.4 -0.5
v -0.0999999 0.1 -0.5
v -0.0999999 0.2 -0.5
v -0.0999999 0.9 -0.5
v -0.0999999 2 -0.5
v -0.0999999 2.1 -0.5
v -0.0999999 2.2 -0.5
v -0.0999999 2.3 -0.5
v -0.0999999 2.4 -0.5
v 0.1 0.1 -0.5
v 0.1 0.2 -0.5
v 0.1 0.9 -0.5
v 0.1 2 -0.5
v 0.1 2.1 -0.5
v 0.1 2.2 -0.5
v 0.1 2.3 -0.5
v 0.1 2.4 -0.5
v 0.2 2.1 -0.5
v 0.2 2.2 -0.5
v 0.2 2.3 -0.5
v 0.2 2.4 -0.5
v 0.3 0.1 -0.5
v 0.3 0.2 -0.5
v 0.3 0.9 -0.5
v 0.3 2.1 -0.5
v 0.3 2.2 -0.5
v 0.3 2.3 -0.5
v 0.3 2.4 -0.5
v 0.3 2.5 -0.5
v 0.4 1.8 -0.5
v 0.4 2 -0.5
v 0.4 2.2 -0.5
v 0.4 2.3 -0.5
v 0.4 2.4 -0.5
v 0.4 2.8 -0.5
v 0.6 1.8 -0.5
v 0.6 2 -0.5
v 1 1.8 -0.5
v 1 2 -0.5
v -0.3 2.3 -0.7
v -0.3 2.4 -0.7
v -0.2 2.3 -0.7
v -0.2 2.4 -0.7
v 0.2 2.3 -0.7
v 0.2 2.4 -0.7
v 0.3 2.3 -0.7
v 0.3 2.4 -0.7
v -0.3 2.3 -0.6
v -0.3 2.4 -0.6
v -0.2 2.3 -0.6
v -0.2 2.4 -0.6
v 0.2 2.3 -0.6
v 0.2 2.4 -0.6
v 0.3 2.3 -0.6
v 0.3 2.4 -0.6
v -1 1.8 -0.7
v -1 2 -0.7
v -0.6 1.8 -0.7
v -0.6 2 -0.7
v -0.4 1.8 -0.7
v -0.4 2 -0.7
v -0.3 0 -0.7
v -0.3 0.2 -0.7
v -0.3 0.9 -0.7
v -0.3 2.1 -0.7
v -0.3 2.2 -0.7
v -0.0999999 0 -0.7
v -0.0999999 0.2 -0.7
v -0.0999999 0.9 -0.7
v -0.0999999 2 -0.7
v -0.0999999 2.1 -0.7
v 0.1 0 -0.7
v 0.1 0.2 -0.7
v 0.1 0.9 -0.7
v 0.1 2 -0.7
v 0.1 2.1 -0.7
v 0.3 0 -0.7
v 0.3 0.2 -0.7
v 0.3 0.9 -0.7
v 0.3 2.1 -0.7
v 0.3 2.2 -0.7
v 0.4 1.8 -0.7
v 0.4 2 -0.7
v 0.6 1.8 -0.7
v 0.6 2 -0.7
v 1 1.8 -0.7
v 1 2 -0.7
v -0.4 0.9 -0.8
v -0.4 1.1 -0.8
v -0.4 2 -0.8
v -0.4 2.2 -0.8
v -0.4 2.8 -0.8
v 0.4 0.9 -0.8
v 0.4 1.1 -0.8
v 0.4 2 -0.8
v 0.4 2.2 -0.8
v 0.4 2.8 -0.8
v -0.3 0 -0.1
v -0.0999999 0 -0.1
v 0.1 0 -0.1
v 0.3 0 -0.1
v -0.3 0 -0.7
v -0.0999999 0 -0.7
v 0.1 0 -0.7
v 0.3 0 -0.7
v -0.4 0.9 -0.4
v 0.4 0.9 -0.4
v -0.3 0.9 -0.5
v -0.0999999 0.9 -0.5
v 0.1 0.9 -0.5
v 0.3 0.9 -0.5
v -0.3 0.9 -0.7
v -0.0999999 0.9 -0.7
v 0.1 0.9 -0.7
v 0.3 0.9 -0.7
v -0.4 0.9 -0.8
v 0.4 0.9 -0.8
v -1 1.8 -0.5
v -0.6 1.8 -0.5
v -0.4 1.8 -0.5
v 0.4 1.8 -0.5
v 0.6 1.8 -0.5
v 1 1.8 -0.5
v -1 1.8 -0.7
v -0.6 1.8 -0.7
v -0.4 1.8 -0.7
v 0.4 1.8 -0.7
v 0.6 1.8 -0.7
v 1 1.8 -0.7
v -0.3 2.1 -0.5
v -0.2 2.1 -0.5
v -0.0999999 2.1 -0.5
v 0.1 2.1 -0.5
v 0.2 2.1 -0.5
v 0.3 2.1 -0.5
v -0.3 2.1 -0.6
v -0.2 2.1 -0.6
v 0.2 2.1 -0.6
v 0.3 2.1 -0.6
v -0.3 2.1 -0.7
v -0.0999999 2.1 -0.7
v 0.1 2.1 -0.7
v 0.3 2.1 -0.7
v -0.4 2.2 -0.5
v -0.3 2.2 -0.5
v 0.3 2.2 -0.5
v 0.4 2.2 -0.5
v -0.3 2.2 -0.6
v 0.3 2.2 -0.6
v -0.3 2.2 -0.7
v 0.3 2.2 -0.7
v -0.4 2.2 -0.8
v 0.4 2.2 -0.8
v -0.3 2.4 -0.6
v -0.2 2.4 -0.6
v 0.2 2.4 -0.6
v 0.3 2.4 -0.6
v -0.3 2.4 -0.7
v -0.2 2.4 -0.7
v 0.2 2.4 -0.7
v 0.3 2.4 -0.7
v -0.3 0.1 -0.1
v -0.0999999 0.1 -0.1
v 0.1 0.1 -0.1
v 0.3 0.1 -0.1
v -0.3 0.1 -0.5
v -0.0999999 0.1 -0.5
v 0.1 0.1 -0.5
v 0.3 0.1 -0.5
v -0.4 2 -0.4
v -0.0999999 2 -0.4
v 0.1 2 -0.4
v 0.4 2 -0.4
v -1 2 -0.5
v -0.6 2 -0.5
v -0.4 2 -0.5
v -0.0999999 2 -0.5
v 0.1 2 -0.5
v 0.4 2 -0.5
v 0.6 2 -0.5
v 1 2 -0.5
v -1 2 -0.7
v -0.6 2 -0.7
v -0.4 2 -0.7
v -0.0999999 2 -0.7
v 0.1 2 -0.7
v 0.4 2 -0.7
v 0.6 2 -0.7
v 1 2 -0.7
v -0.4 2 -0.8
v 0.4 2 -0.8
v -0.3 2.3 -0.6
v -0.2 2.3 -0.6
v 0.2 2.3 -0.6
v 0.3 2.3 -0.6
v -0.3 2.3 -0.7
v -0.2 2.3 -0.7
v 0.2 2.3 -0.7
v 0.3 2.3 -0.7
v -0.4 2.8 -0.5
v 0.4 2.8 -0.5
v -0.3 2.8 -0.6
v 0.3 2.8 -0.6
v -0.3 2.8 -0.7
v 0.3 2.8 -0.7
v -0.4 2.8 -0.8
v 0.4 2.8 -0.8

# faces
f 3/2/1 2/2/1 1/2/1
f 4/2/1 2/2/1 3/2/1
f 7/10/1 6/10/1 5/10/1
f 8/10/1 6/10/1 7/10/1
f 9/7/1 8/7/1 7/7/1
f 10/7/1 8/7/1 9/7/1
f 11/7/1 9/7/1 7/7/1
f 12/7/1 9/7/1 11/7/1
f 13/7/1 8/7/1 10/7/1
f 14/7/1 8/7/1 13/7/1
f 17/12/1 16/12/1 15/12/1
f 18/12/1 16/12/1 17/12/1
f 19/2/1 18/2/1 17/2/1
f 20/12/1 16/12/1 18/12/1
f 20/2/1 18/2/1 19/2/1
f 21/12/1 20/12/1 19/12/1
f 22/12/1 16/12/1 20/12/1
f 22/12/1 20/12/1 21/12/1
f 25/11/1 24/11/1 23/11/1
f 26/11/1 24/11/1 25/11/1
f 27/11/1 24/11/1 26/11/1
f 28/11/1 24/11/1 27/11/1
f 29/10/1 28/10/1 27/10/1
f 30/10/1 28/10/1 29/10/1
f 34/1/1 32/1/1 31/1/1
f 35/2/1 33/2/1 32/2/1
f 35/1/1 32/1/1 34/1/1
f 36/2/1 33/2/1 35/2/1
f 39/5/1 38/5/1 37/5/1
f 40/5/1 38/5/1 39/5/1
f 43/2/1 42/2/1 41/2/1
f 44/2/1 42/2/1 43/2/1
f 47/11/1 46/11/1 45/11/1
f 48/11/1 46/11/1 47/11/1
f 49/11/1 46/11/1 48/11/1
f 50/11/1 46/11/1 49/11/1
f 51/10/1 50/10/1 49/10/1
f 52/10/1 50/10/1 51/10/1
f 55/12/1 54/12/1 53/12/1
f 56/12/1 54/12/1 55/12/1
f 57/12/2 58/12/2 59/12/2
f 59/12/2 58/12/2 60/12/2
f 61/11/2 62/11/2 63/11/2
f 63/11/2 62/11/2 64/11/2
f 64/11/2 62/11/2 65/11/2
f 65/11/2 62/11/2 66/11/2
f 65/10/2 66/10/2 67/10/2
f 67/10/2 66/10/2 68/10/2
f 69/2/2 70/2/2 71/2/2
f 71/2/2 70/2/2 72/2/2
f 73/5/2 74/5/2 75/5/2
f 75/5/2 74/5/2 76/5/2
f 77/11/2 78/11/2 79/11/2
f 79/11/2 78/11/2 80/11/2
f 80/11/2 78/11/2 81/11/2
f 81/11/2 78/11/2 82/11/2
f 81/10/2 82/10/2 83/10/2
f 83/10/2 82/10/2 84/10/2
f 85/1/2 86/1/2 88/1/2
f 86/2/2 87/2/2 89/2/2
f 88/1/2 86/1/2 89/1/2
f 89/2/2 87/2/2 90/2/2
f 91/10/2 92/10/2 93/10/2
f 93/10/2 92/10/2 94/10/2
f 93/7/2 94/7/2 95/7/2
f 95/7/2 94/7/2 96/7/2
f 93/7/2 95/7/2 97/7/2
f 97/7/2 95/7/2 98/7/2
f 96/7/2 94/7/2 99/7/2
f 99/7/2 94/7/2 100/7/2
f 101/12/2 102/12/2 103/12/2
f 103/12/2 102/12/2 104/12/2
f 103/2/2 104/2/2 105/2/2
f 104/12/2 102/12/2 106/12/2
f 105/2/2 104/2/2 106/2/2
f 105/12/2 106/12/2 107/12/2
f 106/12/2 102/12/2 108/12/2
f 107/12/2 106/12/2 108/12/2
f 109/2/2 110/2/2 111/2/2
f 111/2/2 110/2/2 112/2/2
f 115/11/3 114/11/3 113/11/3
f 116/11/3 114/11/3 115/11/3
f 119/11/3 118/11/3 117/11/3
f 120/11/3 118/11/3 119/11/3
f 124/7/3 123/7/3 122/7/3
f 125/7/3 123/7/3 124/7/3
f 126/7/3 124/7/3 122/7/3
f 126/2/3 125/2/3 124/2/3
f 127/2/3 125/2/3 126/2/3
f 128/10/3 122/10/3 121/10/3
f 129/7/3 126/7/3 122/7/3
f 129/10/3 122/10/3 128/10/3
f 129/7/3 127/7/3 126/7/3
f 130/7/3 127/7/3 129/7/3
f 133/2/3 132/2/3 131/2/3
f 134/2/3 132/2/3 133/2/3
f 135/7/3 134/7/3 133/7/3
f 136/7/3 134/7/3 135/7/3
f 145/12/3 138/12/3 137/12/3
f 146/2/3 139/2/3 138/2/3
f 146/12/3 138/12/3 145/12/3
f 147/12/3 140/12/3 139/12/3
f 147/2/3 139/2/3 146/2/3
f 148/12/3 140/12/3 147/12/3
f 149/1/3 145/1/3 144/1/3
f 150/2/3 146/2/3 145/2/3
f 150/1/3 145/1/3 149/1/3
f 150/2/3 147/2/3 146/2/3
f 150/2/3 148/2/3 147/2/3
f 151/2/3 148/2/3 150/2/3
f 152/2/3 148/2/3 151/2/3
f 153/11/3 142/11/3 141/11/3
f 154/10/3 143/10/3 142/10/3
f 154/11/3 142/11/3 153/11/3
f 155/10/3 143/10/3 154/10/3
f 157/2/3 150/2/3 149/2/3
f 157/2/3 151/2/3 150/2/3
f 158/2/3 151/2/3 157/2/3
f 159/8/3 152/8/3 151/8/3
f 159/2/3 151/2/3 158/2/3
f 160/2/3 148/2/3 152/2/3
f 160/8/3 152/8/3 159/8/3
f 164/2/3 157/2/3 156/2/3
f 165/3/3 158/3/3 157/3/3
f 165/2/3 157/2/3 164/2/3
f 166/2/3 159/2/3 158/2/3
f 166/3/3 158/3/3 165/3/3
f 166/2/3 160/2/3 159/2/3
f 167/2/3 160/2/3 166/2/3
f 168/2/3 148/2/3 160/2/3
f 168/2/3 160/2/3 167/2/3
f 169/2/3 167/2/3 166/2/3
f 169/2/3 166/2/3 165/2/3
f 170/2/3 167/2/3 169/2/3
f 171/8/3 168/8/3 167/8/3
f 171/2/3 167/2/3 170/2/3
f 172/2/3 148/2/3 168/2/3
f 172/8/3 168/8/3 171/8/3
f 173/11/3 162/11/3 161/11/3
f 174/10/3 163/10/3 162/10/3
f 174/11/3 162/11/3 173/11/3
f 175/10/3 163/10/3 174/10/3
f 176/1/3 170/1/3 169/1/3
f 177/2/3 171/2/3 170/2/3
f 177/1/3 170/1/3 176/1/3
f 177/2/3 172/2/3 171/2/3
f 178/2/3 172/2/3 177/2/3
f 179/2/3 148/2/3 172/2/3
f 179/2/3 172/2/3 178/2/3
f 180/12/3 140/12/3 148/12/3
f 180/2/3 148/2/3 179/2/3
f 183/12/3 178/12/3 177/12/3
f 184/2/3 179/2/3 178/2/3
f 184/12/3 178/12/3 183/12/3
f 185/12/3 180/12/3 179/12/3
f 185/2/3 179/2/3 184/2/3
f 186/12/3 140/12/3 180/12/3
f 186/12/3 180/12/3 185/12/3
f 187/7/3 182/7/3 181/7/3
f 188/7/3 182/7/3 187/7/3
f 189/2/3 188/2/3 187/2/3
f 190/2/3 188/2/3 189/2/3
f 193/12/3 192/12/3 191/12/3
f 194/12/3 192/12/3 193/12/3
f 197/12/3 196/12/3 195/12/3
f 198/12/3 196/12/3 197/12/3
f 199/2/4 200/2/4 201/2/4
f 201/2/4 200/2/4 202/2/4
f 203/2/4 204/2/4 205/2/4
f 205/2/4 204/2/4 206/2/4
f 207/2/4 208/2/4 209/2/4
f 209/2/4 208/2/4 210/2/4
f 209/7/4 210/7/4 211/7/4
f 211/7/4 210/7/4 212/7/4
f 213/11/4 214/11/4 218/11/4
f 214/10/4 215/10/4 219/10/4
f 218/11/4 214/11/4 219/11/4
f 219/10/4 215/10/4 220/10/4
f 216/2/4 217/2/4 222/2/4
f 221/2/4 222/2/4 226/2/4
f 222/2/4 217/2/4 227/2/4
f 226/2/4 222/2/4 227/2/4
f 223/11/4 224/11/4 228/11/4
f 224/10/4 225/10/4 229/10/4
f 228/11/4 224/11/4 229/11/4
f 229/10/4 225/10/4 230/10/4
f 227/2/4 217/2/4 231/2/4
f 231/2/4 217/2/4 232/2/4
f 233/7/4 234/7/4 235/7/4
f 235/7/4 234/7/4 236/7/4
f 235/2/4 236/2/4 237/2/4
f 237/2/4 236/2/4 238/2/4
f 239/10/4 240/10/4 244/10/4
f 240/7/4 241/7/4 245/7/4
f 244/10/4 240/10/4 245/10/4
f 245/7/4 241/7/4 246/7/4
f 242/12/4 243/12/4 247/12/4
f 247/12/4 243/12/4 248/12/4
f 253/11/5 250/11/5 249/11/5
f 254/11/5 250/11/5 253/11/5
f 255/11/5 252/11/5 251/11/5
f 256/11/5 252/11/5 255/11/5
f 259/10/5 258/10/5 257/10/5
f 260/10/5 258/10/5 259/10/5
f 261/10/5 258/10/5 260/10/5
f 262/10/5 258/10/5 261/10/5
f 263/10/5 259/10/5 257/10/5
f 264/10/5 261/10/5 260/10/5
f 265/10/5 261/10/5 264/10/5
f 266/10/5 258/10/5 262/10/5
f 267/10/5 265/10/5 264/10/5
f 267/10/5 266/10/5 265/10/5
f 267/10/5 263/10/5 257/10/5
f 267/10/5 264/10/5 263/10/5
f 268/10/5 258/10/5 266/10/5
f 268/10/5 266/10/5 267/10/5
f 275/2/5 270/2/5 269/2/5
f 276/7/5 271/7/5 270/7/5
f 276/2/5 270/2/5 275/2/5
f 277/7/5 271/7/5 276/7/5
f 278/7/5 273/7/5 272/7/5
f 279/2/5 274/2/5 273/2/5
f 279/7/5 273/7/5 278/7/5
f 280/2/5 274/2/5 279/2/5
f 287/1/5 282/1/5 281/1/5
f 288/2/5 283/2/5 282/2/5
f 288/1/5 282/1/5 287/1/5
f 289/1/5 286/1/5 285/1/5
f 289/2/5 285/2/5 284/2/5
f 290/1/5 286/1/5 289/1/5
f 291/2/5 288/2/5 287/2/5
f 292/2/5 283/2/5 288/2/5
f 292/2/5 288/2/5 291/2/5
f 293/2/5 289/2/5 284/2/5
f 293/2/5 290/2/5 289/2/5
f 294/2/5 290/2/5 293/2/5
f 299/12/5 296/12/5 295/12/5
f 300/12/5 298/12/5 297/12/5
f 301/12/5 299/12/5 295/12/5
f 302/12/5 298/12/5 300/12/5
f 303/12/5 301/12/5 295/12/5
f 303/12/5 302/12/5 301/12/5
f 304/12/5 298/12/5 302/12/5
f 304/12/5 302/12/5 303/12/5
f 309/5/5 306/5/5 305/5/5
f 310/5/5 306/5/5 309/5/5
f 311/5/5 308/5/5 307/5/5
f 312/5/5 308/5/5 311/5/5
f 313/11/6 314/11/6 317/11/6
f 317/11/6 314/11/6 318/11/6
f 315/11/6 316/11/6 319/11/6
f 319/11/6 316/11/6 320/11/6
f 321/7/6 322/7/6 327/7/6
f 322/2/6 323/2/6 328/2/6
f 327/7/6 322/7/6 328/7/6
f 323/7/6 324/7/6 329/7/6
f 328/2/6 323/2/6 329/2/6
f 329/7/6 324/7/6 330/7/6
f 325/2/6 326/2/6 333/2/6
f 326/7/6 327/7/6 334/7/6
f 333/2/6 326/2/6 334/2/6
f 327/4/6 328/4/6 335/4/6
f 334/7/6 327/7/6 335/7/6
f 335/4/6 328/4/6 336/4/6
f 329/4/6 330/4/6 337/4/6
f 330/7/6 331/7/6 338/7/6
f 337/4/6 330/4/6 338/4/6
f 331/2/6 332/2/6 339/2/6
f 338/7/6 331/7/6 339/7/6
f 339/2/6 332/2/6 340/2/6
f 337/7/6 338/7/6 341/7/6
f 336/7/6 337/7/6 341/7/6
f 335/7/6 336/7/6 341/7/6
f 341/7/6 338/7/6 342/7/6
f 343/5/6 344/5/6 347/5/6
f 347/5/6 344/5/6 348/5/6
f 345/5/6 346/5/6 349/5/6
f 349/5/6 346/5/6 350/5/6
f 351/12/6 352/12/6 353/12/6
f 353/12/6 352/12/6 354/12/6
f 351/12/6 353/12/6 355/12/6
f 353/9/6 354/9/6 355/9/6
f 354/12/6 352/12/6 356/12/6
f 355/9/6 354/9/6 356/9/6
f 351/12/6 355/12/6 357/12/6
f 355/12/6 356/12/6 357/12/6
f 356/12/6 352/12/6 358/12/6
f 357/12/6 356/12/6 358/12/6
